<svg fill="none" height="16" viewBox="0 0 16 16" width="16" xmlns="http://www.w3.org/2000/svg"><path d="m15.1875 11.125c-.1725 0-.3125.14-.3125.3125v2.1875c0 .6906-.5594 1.25-1.25 1.25h-11.25c-.69062 0-1.25-.5594-1.25-1.25v-11.25c0-.69062.55938-1.25 1.25-1.25h2.1875c.1725 0 .3125-.14.3125-.3125s-.14-.3125-.3125-.3125h-2.1875c-1.03562 0-1.875.83938-1.875 1.875v11.25c0 1.0356.83938 1.875 1.875 1.875h11.25c1.0356 0 1.875-.8394 1.875-1.875v-2.1875c0-.1725-.14-.3125-.3125-.3125z" fill="#b3b3ff"/></svg>